<svg width="20" height="18" viewBox="0 0 20 18" fill="none" xmlns="http://www.w3.org/2000/svg">
<path d="M5.00877 1.6875H2.12949C1.81539 1.6875 1.56121 1.93909 1.56121 2.25C1.56121 2.56091 1.81539 2.8125 2.12949 2.8125H5.00877C5.32288 2.8125 5.57705 2.56091 5.57705 2.25C5.57705 1.93909 5.32288 1.6875 5.00877 1.6875Z" fill="#321C1C"/>
<path d="M5.00877 6.1875H2.12949C1.81539 6.1875 1.56121 6.43909 1.56121 6.75C1.56121 7.06091 1.81539 7.3125 2.12949 7.3125H5.00877C5.32288 7.3125 5.57705 7.06091 5.57705 6.75C5.57705 6.43909 5.32288 6.1875 5.00877 6.1875Z" fill="#321C1C"/>
<path d="M3.87221 3.9375H0.992935C0.678828 3.9375 0.424656 4.18909 0.424656 4.5C0.424656 4.81091 0.678828 5.0625 0.992935 5.0625H3.87221C4.18632 5.0625 4.44049 4.81091 4.44049 4.5C4.44049 4.18909 4.18632 3.9375 3.87221 3.9375Z" fill="#321C1C"/>
<path d="M18.6854 6.74989H15.2378V4.49989C15.2378 3.51192 14.0168 2.99172 13.2973 3.70482L8.75143 8.20448C8.30745 8.64394 8.30745 9.35584 8.75143 9.7953L11.3575 12.3749L8.18315 15.517C7.73917 15.9564 7.73917 16.6683 8.18315 17.1078C8.62709 17.5472 9.34634 17.5473 9.79032 17.1078L13.7683 13.1703C14.2122 12.7308 14.2122 12.0189 13.7683 11.5795L11.1622 8.99989L12.9647 7.21572V7.87489C12.9647 8.49615 13.4736 8.99989 14.1012 8.99989H18.6854C19.313 8.99989 19.8219 8.49615 19.8219 7.87489C19.8219 7.25363 19.313 6.74989 18.6854 6.74989Z" fill="#321C1C"/>
<path d="M11.0378 1.033C10.5861 0.735813 9.98672 0.794613 9.60378 1.17363L6.47825 4.26737C6.03427 4.70683 6.03427 5.41873 6.47825 5.8582C6.92222 6.29766 7.64148 6.29762 8.08545 5.85816L10.5522 3.41646L11.3832 4.00896L12.4935 2.90999C12.6792 2.72616 12.8982 2.58347 13.1378 2.47206L11.0378 1.033Z" fill="#321C1C"/>
<path d="M7.94784 10.5909C7.65988 10.3058 7.46765 9.95503 7.3663 9.57568L1.3638 15.5171C0.919825 15.9566 0.919825 16.6685 1.3638 17.108C1.80774 17.5474 2.52699 17.5474 2.97097 17.108L8.75143 11.3863L7.94784 10.5909Z" fill="#321C1C"/>
<path d="M15.8061 3.375C16.7476 3.375 17.5109 2.61948 17.5109 1.6875C17.5109 0.755519 16.7476 0 15.8061 0C14.8645 0 14.1012 0.755519 14.1012 1.6875C14.1012 2.61948 14.8645 3.375 15.8061 3.375Z" fill="#321C1C"/>
</svg>
