<svg width="23" height="14" viewBox="0 0 23 14" fill="none" xmlns="http://www.w3.org/2000/svg">
<path d="M18.1557 6.3999C17.8028 6.3999 17.4674 6.45938 17.1426 6.54354L14.6845 1.5999H16.987C17.5514 1.5999 17.8427 2.24518 17.439 2.6241L17.0644 2.97566C16.8147 3.21002 16.8147 3.58974 17.0644 3.8241C17.3141 4.05846 17.7187 4.05846 17.9684 3.8241L18.343 3.47254C19.5463 2.3433 18.6879 0.399902 16.987 0.399902H13.6805C13.462 0.399902 13.2585 0.504782 13.1411 0.677622C13.0238 0.850462 13.0088 1.06786 13.1012 1.25358L14.4667 3.9999H7.92672V2.7999H9.84466C10.198 2.7999 10.484 2.53154 10.484 2.1999C10.484 1.86826 10.198 1.5999 9.84466 1.5999H6.00878C5.65541 1.5999 5.36946 1.86826 5.36946 2.1999C5.36946 2.53154 5.65541 2.7999 6.00878 2.7999H6.64809V4.44478L5.36128 6.61862C4.96171 6.48582 4.53831 6.3999 4.09083 6.3999C1.9756 6.3999 0.21233 8.01474 0.21233 9.9999C0.21233 11.9851 1.9756 13.5999 4.09083 13.5999C5.98717 13.5999 7.55558 12.299 7.8621 10.5999H8.68379C8.9486 11.2968 9.65159 11.7999 10.484 11.7999C11.5416 11.7999 12.4019 10.9925 12.4019 9.9999C12.4019 9.61998 12.2742 9.2685 12.0594 8.97774L15.0254 5.12346L15.9791 7.04138C14.9787 7.69166 14.3199 8.77374 14.3199 9.9999C14.3199 11.9851 16.0405 13.5999 18.1557 13.5999C20.271 13.5999 22.0342 11.9851 22.0342 9.9999C22.0342 8.01474 20.271 6.3999 18.1557 6.3999ZM5.84895 8.2653C6.18945 8.56942 6.43558 8.96022 6.55731 9.3999H5.17716L5.84895 8.2653ZM4.09083 12.3999C2.68047 12.3999 1.49096 11.3235 1.49096 9.9999C1.49096 8.67626 2.68047 7.5999 4.09083 7.5999C4.3128 7.5999 4.5245 7.6349 4.72998 7.68502L3.53207 9.7087C3.4222 9.89446 3.42467 10.1212 3.53958 10.304C3.65444 10.4874 3.86422 10.5959 4.09088 10.5959H6.55735C6.27145 11.6282 5.27915 12.3999 4.09083 12.3999ZM8.68375 9.3999H7.86206C7.70206 8.51302 7.19487 7.74462 6.47731 7.20394L7.28762 5.83542L9.05148 8.81514C8.89157 8.98522 8.76656 9.1821 8.68375 9.3999ZM11.0189 8.27994C10.848 8.23294 10.6709 8.1999 10.484 8.1999C10.3756 8.1999 10.2709 8.21358 10.1673 8.22994L8.37381 5.1999H13.389L11.0189 8.27994ZM18.1557 12.3999C16.7454 12.3999 15.5985 11.3235 15.5985 9.9999C15.5985 9.25658 15.9678 8.59942 16.5348 8.15894L17.5764 10.2536C17.7246 10.5511 18.1028 10.6845 18.4261 10.5436C18.7464 10.4036 18.8843 10.0461 18.7351 9.74614L17.6899 7.6441C17.8414 7.61774 17.9963 7.59986 18.1558 7.59986C19.5662 7.59986 20.7557 8.67622 20.7557 9.99986C20.7557 11.3235 19.5661 12.3999 18.1557 12.3999Z" fill="#321C1C"/>
</svg>
