<svg width="25" height="24" viewBox="0 0 25 24" fill="none" xmlns="http://www.w3.org/2000/svg">
<path d="M16.3665 10.2004C16.3665 11.193 17.1822 12.0004 18.185 12.0004C19.1877 12.0004 20.0035 11.193 20.0035 10.2004C20.0035 9.20782 19.1877 8.40039 18.185 8.40039C17.1822 8.40039 16.3665 9.20782 16.3665 10.2004V10.2004Z" fill="#321C1C"/>
<path d="M7.87606 13.2002C8.61364 13.2002 8.92441 13.0244 9.39385 12.7584C9.99112 12.4209 10.734 12.0002 12.1163 12.0002C13.4997 12.0002 14.2432 12.4203 14.8405 12.7578C15.1569 12.9368 15.4099 13.069 15.7604 13.1404V7.60034L17.3361 5.52027C17.7381 4.98997 17.6297 4.23763 17.094 3.84039C16.5571 3.44137 15.7982 3.55153 15.3969 4.08003L13.5784 6.48002C13.4209 6.68801 13.3357 6.94058 13.3357 7.20014V9.45835L6.50543 12.8388C6.89783 13.0565 7.22029 13.2002 7.87606 13.2002Z" fill="#321C1C"/>
<path d="M3.637 15.6002C4.37458 15.6002 4.68476 15.776 5.15419 16.042C5.75087 16.3795 6.49378 16.8002 7.87603 16.8002C9.25828 16.8002 10.0006 16.3795 10.5979 16.042C11.0679 15.776 11.3781 15.6002 12.1162 15.6002C12.8562 15.6002 13.1676 15.776 13.6388 16.0426C14.236 16.3801 14.9795 16.8002 16.363 16.8002C17.7464 16.8002 18.4899 16.3801 19.0872 16.0426C19.5584 15.776 19.8698 15.6002 20.6097 15.6002C21.2792 15.6002 21.8221 15.0629 21.8221 14.4002C21.8221 13.7375 21.2792 13.2002 20.6097 13.2002C19.2263 13.2002 18.4828 13.6203 17.8855 13.9578C17.4143 14.2244 17.1029 14.4002 16.363 14.4002C15.623 14.4002 15.3117 14.2244 14.8405 13.9578C14.2432 13.6203 13.4997 13.2002 12.1162 13.2002C10.734 13.2002 9.99113 13.6209 9.39382 13.9584C8.92438 14.2244 8.61361 14.4002 7.87603 14.4002C7.13845 14.4002 6.82768 14.2244 6.35825 13.9584C5.76157 13.6209 5.01866 13.2002 3.637 13.2002C2.9675 13.2002 2.42466 13.7375 2.42466 14.4002C2.42466 15.063 2.9675 15.6002 3.637 15.6002V15.6002Z" fill="#321C1C"/>
<path d="M20.6096 16.7998C19.2262 16.7998 18.4827 17.2199 17.8854 17.5574C17.4142 17.824 17.1029 17.9998 16.3629 17.9998C15.623 17.9998 15.3116 17.8241 14.8404 17.5574C14.2431 17.2199 13.4996 16.7998 12.1162 16.7998C10.734 16.7998 9.99105 17.2205 9.39375 17.558C8.92431 17.824 8.61354 17.9998 7.87596 17.9998C7.13838 17.9998 6.82761 17.8241 6.35817 17.558C5.76149 17.2205 5.01858 16.7998 3.63692 16.7998C2.9675 16.7998 2.42466 17.3371 2.42466 17.9998C2.42466 18.6625 2.9675 19.1998 3.637 19.1998C4.37458 19.1998 4.68476 19.3756 5.15419 19.6416C5.75087 19.9791 6.49378 20.3998 7.87603 20.3998C9.25828 20.3998 10.0006 19.9791 10.5979 19.6416C11.0679 19.3756 11.3781 19.1998 12.1163 19.1998C12.8562 19.1998 13.1676 19.3756 13.6388 19.6422C14.236 19.9797 14.9795 20.3998 16.363 20.3998C17.7464 20.3998 18.4898 19.9797 19.0871 19.6422C19.5583 19.3756 19.8697 19.1998 20.6096 19.1998C21.2791 19.1998 21.822 18.6625 21.822 17.9998C21.822 17.3371 21.2791 16.7998 20.6096 16.7998V16.7998Z" fill="#321C1C"/>
</svg>
